<svg xmlns="http://www.w3.org/2000/svg" width="1080" height="1080" viewBox="0 0 1080 1080" version="1.1">
  <path fill="#000000" opacity="0.000000" stroke="none" 
	d="
M1.000000,409.000000 
	C1.000000,274.182159 1.016927,139.864319 0.910453,5.546575 
	C0.907546,1.879489 1.592839,0.898089 5.452488,0.899261 
	C362.411255,1.007663 719.370056,1.010003 1076.328857,0.879631 
	C1080.549805,0.878090 1081.100708,1.937415 1081.099609,5.827804 
	C1080.992432,362.619934 1080.991821,719.412048 1081.104004,1076.204224 
	C1081.105225,1080.161255 1080.449463,1081.117798 1076.296875,1081.116333 
	C719.504700,1080.990356 362.712555,1080.988892 5.920433,1081.127319 
	C1.476789,1081.129028 0.902894,1079.941895 0.904834,1075.921509 
	C1.012020,853.781006 1.000000,631.640503 1.000000,409.000000 
z"/>
    <path
        d="M 538.759 56.575 C 538.508 56.825, 538.520 73.866, 538.785 94.445 L 539.266 131.859 535.883 132.391 C 534.022 132.683, 521.925 133.605, 509 134.441 C 488.348 135.775, 482.423 136.578, 460.112 141.065 C 444.284 144.248, 434.493 145.798, 434.112 145.180 C 433.775 144.635, 429.278 128.509, 424.117 109.344 C 418.956 90.180, 414.456 74.185, 414.117 73.801 C 413.778 73.416, 400.163 77.691, 383.861 83.301 C 357.545 92.357, 351.018 95.069, 325.634 107.500 C 309.910 115.200, 297.035 121.783, 297.023 122.129 C 297.003 122.682, 316.672 156.943, 330.042 179.644 L 334.838 187.788 312.849 202.443 C 292.317 216.127, 281.730 224.629, 253.319 250.252 L 251.139 252.218 224.471 225.859 C 209.804 211.362, 197.486 199.500, 197.098 199.500 C 196.709 199.500, 187.133 210.109, 175.818 223.076 C 157.832 243.686, 153.030 249.970, 137.641 273.044 C 127.959 287.561, 120.367 299.742, 120.769 300.114 C 121.171 300.486, 135.787 308.993, 153.250 319.019 C 170.712 329.044, 184.996 337.754, 184.992 338.373 C 184.988 338.993, 179.876 349.883, 173.634 362.574 C 164.142 381.870, 160.937 389.690, 154.059 410.324 C 149.535 423.896, 145.562 435, 145.231 435 C 144.899 435, 128.465 430.697, 108.711 425.437 C 88.956 420.177, 72.597 416.070, 72.357 416.310 C 72.116 416.550, 69.232 430.416, 65.947 447.123 C 60.309 475.803, 59.865 479.148, 57.999 507 C 56.913 523.225, 56.018 537.737, 56.012 539.250 L 56 542 94 542 L 132 542 132.035 544.250 C 132.054 545.487, 132.946 558.200, 134.018 572.500 C 135.708 595.046, 136.621 601.689, 140.893 622.500 C 143.603 635.700, 145.748 646.551, 145.660 646.612 C 145.572 646.674, 129.188 651.131, 109.250 656.517 C 89.313 661.902, 73 666.697, 73 667.172 C 73 667.647, 77.665 681.640, 83.367 698.268 C 92.853 725.928, 94.904 730.840, 107.479 756 C 115.038 771.125, 121.328 783.618, 121.457 783.762 C 121.586 783.906, 136.446 775.455, 154.481 764.981 C 172.515 754.507, 187.368 746.064, 187.488 746.219 C 187.608 746.373, 194.519 756.625, 202.845 769 C 215.081 787.184, 221.234 795.145, 234.921 810.500 L 251.856 829.500 225.305 856.130 C 210.702 870.777, 198.921 883.203, 199.127 883.744 C 199.332 884.285, 209.625 893.608, 222 904.462 C 241.581 921.637, 247.980 926.527, 271.324 942.157 C 286.077 952.035, 298.592 959.969, 299.135 959.788 C 299.677 959.608, 308.308 945.217, 318.314 927.809 C 328.321 910.402, 336.795 895.872, 337.146 895.521 C 337.496 895.170, 347.696 899.843, 359.812 905.906 C 378.052 915.033, 386.197 918.418, 407.170 925.589 C 421.102 930.352, 432.991 934.530, 433.592 934.874 C 434.323 935.293, 431.607 947.063, 425.371 970.500 C 420.248 989.750, 416.045 1006.215, 416.029 1007.089 C 416.005 1008.381, 421.928 1009.830, 447.750 1014.850 C 478.448 1020.818, 480.510 1021.085, 509.991 1022.921 C 526.761 1023.966, 540.823 1024.609, 541.241 1024.351 C 541.658 1024.093, 542 1007.061, 542 986.502 L 542 949.123 546.250 948.588 C 548.587 948.295, 560.627 947.379, 573.005 946.554 C 592.420 945.260, 598.932 944.359, 620.424 939.995 C 634.126 937.213, 645.651 935.289, 646.034 935.719 C 646.418 936.148, 650.911 952.110, 656.019 971.189 C 661.127 990.268, 665.605 1006.360, 665.969 1006.950 C 666.400 1007.648, 677.268 1004.388, 697.124 997.604 C 725.217 988.006, 729.795 986.098, 755.308 973.352 C 770.539 965.743, 783 959.172, 783 958.750 C 783 957.965, 781.901 956.033, 759.155 916.825 C 751.920 904.354, 746 893.897, 746 893.587 C 746 893.277, 755.563 886.657, 767.250 878.875 C 778.938 871.094, 791.875 861.733, 796 858.072 C 800.125 854.412, 809.284 846.310, 816.353 840.068 L 829.205 828.719 856.088 855.588 C 879.583 879.071, 883.150 882.271, 884.392 880.979 C 885.173 880.165, 894.455 869.600, 905.017 857.500 C 921.479 838.642, 926.789 831.663, 942.196 808.636 C 952.082 793.860, 959.795 781.420, 959.336 780.990 C 958.876 780.561, 944.212 772.007, 926.750 761.981 C 909.288 751.956, 895 743.430, 895 743.034 C 895 742.638, 900.139 731.760, 906.419 718.860 C 914.187 702.906, 920.627 687.746, 926.560 671.453 C 931.357 658.279, 935.611 647.130, 936.014 646.678 C 936.416 646.225, 950.325 649.540, 966.922 654.045 C 983.519 658.549, 997.303 662.030, 997.553 661.780 C 998.834 660.500, 1011.484 541.151, 1010.449 540.115 C 1010.111 539.777, 958.026 539.500, 894.705 539.500 L 779.576 539.500 778.654 543.500 C 778.146 545.700, 774.417 559.178, 770.366 573.452 C 766.315 587.725, 763 599.941, 763 600.597 C 763 601.338, 776.575 605.101, 798.750 610.507 C 818.413 615.301, 834.850 619.545, 835.277 619.939 C 836.773 621.316, 823.758 656.423, 815.056 674.482 C 774.360 758.938, 694.313 821.169, 602 840.117 C 435.347 874.323, 273.154 766.592, 240.100 599.738 C 218.917 492.805, 256.267 382.873, 338.292 310.734 C 442.449 219.129, 595.188 209.265, 710.622 286.687 C 754.730 316.271, 791.705 358.540, 814.785 405.766 C 819.642 415.706, 823.740 422.921, 824.381 422.663 C 839.242 416.677, 915.720 384.540, 916.268 384.051 C 916.690 383.673, 911.870 372.940, 905.556 360.198 C 896.089 341.096, 891.272 332.864, 878.090 313.266 C 865.022 293.837, 859.091 286.124, 845.595 271 C 836.515 260.825, 829.179 252.207, 829.293 251.849 C 829.407 251.492, 841.051 239.342, 855.168 224.849 C 869.286 210.357, 880.986 198.161, 881.168 197.747 C 881.351 197.333, 871.150 187.953, 858.500 176.902 C 838.563 159.486, 831.940 154.425, 808.764 138.905 C 794.059 129.057, 781.672 121, 781.237 121 C 780.802 121, 772.168 135.421, 762.051 153.048 C 751.933 170.674, 743.305 185.312, 742.877 185.576 C 742.448 185.841, 731.839 180.933, 719.299 174.670 C 699.574 164.817, 693.096 162.153, 671.250 154.906 C 652.975 148.844, 646.005 146.111, 646.019 145.015 C 646.029 144.182, 650.250 127.750, 655.397 108.500 C 660.545 89.250, 664.474 73.221, 664.128 72.879 C 663.783 72.538, 649.325 69.515, 632 66.162 C 602.415 60.436, 598.919 59.972, 574.500 58.531 C 560.200 57.687, 546.411 56.799, 543.857 56.558 C 541.303 56.317, 539.009 56.324, 538.759 56.575 M 316 407.440 C 316 407.859, 323.021 427.168, 331.602 450.351 C 340.183 473.533, 353.191 508.700, 360.508 528.500 C 367.825 548.300, 385.377 595.775, 399.513 634 C 413.648 672.225, 425.659 704.737, 426.204 706.250 L 427.196 709 465.495 709 L 503.793 709 507.337 699.750 C 509.286 694.663, 514.620 680.600, 519.190 668.500 L 527.500 646.500 527.801 569 C 528.060 502.529, 527.903 491.713, 526.702 493 C 525.932 493.825, 512.579 519.025, 497.028 549 C 481.478 578.975, 468.404 603.883, 467.977 604.351 C 467.549 604.819, 466.872 604.144, 466.474 602.851 C 466.075 601.558, 453.486 568.100, 438.499 528.500 C 423.512 488.900, 407.293 445.925, 402.456 433 C 397.620 420.075, 393.370 409.153, 393.010 408.729 C 392.156 407.720, 316 406.446, 316 407.440 M 698.854 407.746 L 687.207 408.062 685.130 413.281 C 683.987 416.151, 672 447.750, 658.493 483.500 C 644.986 519.250, 629.127 561.205, 623.251 576.734 C 617.375 592.263, 612.271 604.638, 611.909 604.234 C 611.546 603.830, 598.522 578.975, 582.966 549 C 567.410 519.025, 554.056 493.825, 553.291 493 C 552.102 491.718, 551.944 502.765, 552.204 569 L 552.508 646.500 562.153 672 C 567.458 686.025, 572.777 700.087, 573.971 703.250 L 576.144 709 614.474 709 L 652.804 709 653.789 706.250 C 654.703 703.700, 729.419 501.665, 753.405 436.887 C 759.232 421.149, 764 407.987, 764 407.637 C 764 407.024, 722.936 407.093, 698.854 407.746"
        stroke="dodgerblue" fill="rgba(0,0,0,0.5)" fill-rule="evenodd" />
</svg>